PathFileType	3	(X/Y/Z)	feet_movements_1__view2_aligned.trc
DataRate	CameraRate	NumFrames	NumMarkers	Units	OrigDataRate	OrigDataStartFrame	OrigNumFrames
100.0	100.0	10	19	mm	100.0	1792	1840
Frame#	Time	pelvis			neck			head			hip_left			hip_right			knee_left			knee_right			ankle_left			ankle_right			heel_left			heel_right			toe_left			toe_right			shoulder_left			shoulder_right			elbow_left			elbow_right			wrist_left			wrist_right			
		X1	Y1	Z1	X2	Y2	Z2	X3	Y3	Z3	X4	Y4	Z4	X5	Y5	Z5	X6	Y6	Z6	X7	Y7	Z7	X8	Y8	Z8	X9	Y9	Z9	X10	Y10	Z10	X11	Y11	Z11	X12	Y12	Z12	X13	Y13	Z13	X14	Y14	Z14	X15	Y15	Z15	X16	Y16	Z16	X17	Y17	Z17	X18	Y18	Z18	X19	Y19	Z19	
1792	17.91000	141.135287	945.731817	471.538683	200.121005	1477.564462	546.162724	208.997145	1624.956638	463.398100	71.827785	965.947195	454.176286	210.443255	925.516404	488.901159	85.636435	1140.900226	74.120624	224.250747	520.821183	377.759461	21.236167	748.145545	137.036636	136.205256	133.885424	457.632463	12.260041	696.255274	163.264239	117.058705	88.847329	491.790305	23.365093	748.524022	-43.634527	185.045188	66.611940	286.228156	30.579640	1437.189996	533.298983	350.678101	1438.342029	617.695354	-157.626390	1252.678245	433.953853	535.599066	1249.480038	698.872579	-326.461211	1138.638295	283.532900	718.141322	1151.788620	558.884728
1793	17.92000	140.165078	945.700339	470.982155	199.724484	1476.965861	546.422435	208.948457	1624.331340	463.751201	70.875602	966.116038	453.635605	209.454927	925.284613	488.328766	85.335890	1144.241145	74.987362	223.663162	520.681963	377.034147	21.512857	751.331844	137.953314	135.234805	133.871221	457.539599	12.533828	699.448845	164.207042	116.086990	88.854379	491.742389	24.352272	751.464350	-42.667386	184.068151	66.560578	286.196728	30.175803	1436.749931	533.334437	350.113932	1437.659356	618.102618	-158.000370	1252.311337	433.771647	535.204713	1248.820170	699.063755	-326.940022	1138.503101	283.398841	717.956272	1151.914096	558.876090
1794	17.93000	139.194869	945.668862	470.425627	199.327963	1476.367261	546.682145	208.899769	1623.706043	464.104301	69.923419	966.284881	453.094924	208.466599	925.052822	487.756373	85.035345	1147.582064	75.854101	223.075578	520.542743	376.308834	21.789547	754.518144	138.869992	134.264355	133.857019	457.446735	12.807615	702.642417	165.149844	115.115276	88.861430	491.694473	25.339452	754.404678	-41.700246	183.091115	66.509215	286.165301	29.771967	1436.309866	533.369891	349.549763	1436.976683	618.509882	-158.374349	1251.944430	433.589442	534.810360	1248.160302	699.254930	-327.418834	1138.367907	283.264783	717.771223	1152.039572	558.867452
1795	17.94000	138.224660	945.637384	469.869099	198.931442	1475.768660	546.941856	208.851081	1623.080745	464.457402	68.971235	966.453723	452.554243	207.478272	924.821030	487.183979	84.734799	1150.922983	76.720839	222.487993	520.403522	375.583521	22.066237	757.704444	139.786670	133.293904	133.842816	457.353871	13.081402	705.835988	166.092647	114.143561	88.868481	491.646558	26.326631	757.345007	-40.733105	182.114078	66.457853	286.133874	29.368130	1435.869801	533.405346	348.985594	1436.294009	618.917145	-158.748329	1251.577523	433.407237	534.416006	1247.500434	699.446105	-327.897645	1138.232713	283.130724	717.586173	1152.165048	558.858814
1796	17.95000	137.254451	945.605906	469.312572	198.534920	1475.170059	547.201566	208.802394	1622.455448	464.810503	68.019052	966.622566	452.013561	206.489944	924.589239	486.611586	84.434254	1154.263902	77.587578	221.900409	520.264302	374.858208	22.342927	760.890743	140.703347	132.323453	133.828613	457.261008	13.355189	709.029560	167.035449	113.171847	88.875532	491.598642	27.313810	760.285335	-39.765965	181.137042	66.406490	286.102447	28.964293	1435.429737	533.440800	348.421425	1435.611336	619.324409	-159.122309	1251.210615	433.225031	534.021653	1246.840566	699.637280	-328.376456	1138.097519	282.996665	717.401124	1152.290523	558.850176
1797	17.96000	136.284241	945.574429	468.756044	198.138399	1474.571459	547.461277	208.753706	1621.830151	465.163604	67.066869	966.791409	451.472880	205.501617	924.357448	486.039193	84.133709	1157.604821	78.454316	221.312824	520.125082	374.132895	22.619616	764.077043	141.620025	131.353002	133.814411	457.168144	13.628976	712.223131	167.978252	112.200132	88.882582	491.550726	28.300990	763.225663	-38.798824	180.160005	66.355128	286.071020	28.560456	1434.989672	533.476254	347.857256	1434.928663	619.731673	-159.496288	1250.843708	433.042826	533.627300	1246.180698	699.828456	-328.855267	1137.962325	282.862607	717.216075	1152.415999	558.841538
1798	17.97000	135.314032	945.542951	468.199516	197.741878	1473.972858	547.720987	208.705018	1621.204853	465.516705	66.114686	966.960252	450.932199	204.513289	924.125656	485.466800	83.833163	1160.945740	79.321055	220.725239	519.985861	373.407582	22.896306	767.263343	142.536703	130.382551	133.800208	457.075280	13.902763	715.416703	168.921054	111.228418	88.889633	491.502810	29.288169	766.165992	-37.831684	179.182969	66.303765	286.039592	28.156619	1434.549607	533.511708	347.293086	1434.245990	620.138937	-159.870268	1250.476800	432.860621	533.232946	1245.520830	700.019631	-329.334078	1137.827131	282.728548	717.031025	1152.541475	558.832900
1799	17.98000	134.343823	945.511473	467.642989	197.345357	1473.374257	547.980698	208.656330	1620.579556	465.869806	65.162502	967.129094	450.391518	203.524961	923.893865	484.894406	83.532618	1164.286659	80.187793	220.137655	519.846641	372.682269	23.172996	770.449643	143.453381	129.412100	133.786005	456.982416	14.176550	718.610275	169.863857	110.256704	88.896684	491.454895	30.275348	769.106320	-36.864543	178.205932	66.252403	286.008165	27.752783	1434.109542	533.547162	346.728917	1433.563316	620.546200	-160.244247	1250.109893	432.678415	532.838593	1244.860963	700.210806	-329.812890	1137.691937	282.594490	716.845976	1152.666951	558.824262
1800	17.99000	133.373614	945.479995	467.086461	196.948836	1472.775657	548.240408	208.607642	1619.954258	466.222907	64.210319	967.297937	449.850837	202.536634	923.662074	484.322013	83.232072	1167.627577	81.054532	219.550070	519.707421	371.956956	23.449686	773.635942	144.370058	128.441650	133.771803	456.889552	14.450337	721.803846	170.806659	109.284989	88.903734	491.406979	31.262528	772.046649	-35.897403	177.228896	66.201040	285.976738	27.348946	1433.669477	533.582616	346.164748	1432.880643	620.953464	-160.618227	1249.742986	432.496210	532.444239	1244.201095	700.401981	-330.291701	1137.556743	282.460431	716.660927	1152.792427	558.815624
1801	18.00000	132.403405	945.448518	466.529933	196.552314	1472.177056	548.500119	208.558955	1619.328961	466.576008	63.258136	967.466780	449.310156	201.548306	923.430282	483.749620	82.931527	1170.968496	81.921270	218.962486	519.568200	371.231643	23.726376	776.822242	145.286736	127.471199	133.757600	456.796688	14.724124	724.997418	171.749462	108.313275	88.910785	491.359063	32.249707	774.986977	-34.930262	176.251859	66.149678	285.945311	26.945109	1433.229412	533.618070	345.600579	1432.197970	621.360728	-160.992206	1249.376078	432.314005	532.049886	1243.541227	700.593157	-330.770512	1137.421549	282.326373	716.475877	1152.917903	558.806986
